<svg xmlns="http://www.w3.org/2000/svg" width="21.078" height="18.8" viewBox="0 0 21.078 18.8"><rect width="3.7" height="12.1"/><path d="M316.5,110.2h-9.2v11.6l.2.2c5.2,6,6.8,6.8,7.4,6.8a.367.367,0,0,0,.3-.1,1.135,1.135,0,0,0,.6-1,13.176,13.176,0,0,0-.5-2.6,5.983,5.983,0,0,1-.4-2.7,1.238,1.238,0,0,1,.3-.2,8.247,8.247,0,0,1,3.1-.1,12.123,12.123,0,0,0,2,.1,2.736,2.736,0,0,0,2.3-.9c.7-.9.6-2.4-.1-4.9C322,114.5,320.2,110.2,316.5,110.2Zm5,10.2c-.1.1-.2.3-1.1.3-.7,0-1.2-.1-1.8-.1a8.016,8.016,0,0,0-3.7.2,1.646,1.646,0,0,0-1.2.9c-.6,1-.2,2.5.2,3.9.1.4.2.9.3,1.3a60.328,60.328,0,0,1-5.4-5.6v-9.5h7.7c2.7,0,4.1,3.6,4.6,5.1C321.9,119.2,321.7,120.1,321.5,120.4Z" transform="translate(-302 -110)"/></svg>