<svg xmlns="http://www.w3.org/2000/svg" width="21.213" height="18.781" viewBox="0 0 21.213 18.781"><rect width="3.7" height="12.1" transform="translate(0 6.682)"/><path d="M280.4,115.8c-.8,0-1.4.1-2,.1a8.205,8.205,0,0,1-3.1-.1,1.237,1.237,0,0,1-.3-.2c-.3-.5.1-1.7.4-2.7a13.176,13.176,0,0,0,.5-2.6,1.135,1.135,0,0,0-.6-1c-.4-.2-1.5-.6-7.7,6.7l-.2.2v11.6h9.2c3.7,0,5.4-4.3,6-6.2.8-2.5.8-4,.1-4.9A2.736,2.736,0,0,0,280.4,115.8Zm.7,5.4c-.5,1.5-1.9,5.1-4.6,5.1h-7.7v-9.5a60.332,60.332,0,0,1,5.4-5.6c-.1.4-.2.8-.3,1.3-.4,1.4-.8,2.9-.2,3.9a2.151,2.151,0,0,0,1.2.9,9.671,9.671,0,0,0,3.7.2,9.723,9.723,0,0,1,1.8-.1c.8,0,1,.2,1.1.3C281.7,117.9,281.9,118.8,281.1,121.2Z" transform="translate(-262 -109.218)"/></svg>