<svg xmlns="http://www.w3.org/2000/svg" viewBox="0 0 22 22"><defs><style>.cls-1{fill-rule:evenodd;}</style></defs><g id="Layer_2" data-name="Layer 2"><g id="Layer_1-2" data-name="Layer 1"><path class="cls-1" d="M0,2A2,2,0,0,1,2,0H8a2,2,0,0,1,2,2V8a2,2,0,0,1-2,2H2A2,2,0,0,1,0,8ZM0,14a2,2,0,0,1,2-2H8a2,2,0,0,1,2,2v6a2,2,0,0,1-2,2H2a2,2,0,0,1-2-2Zm12,0a2,2,0,0,1,2-2h6a2,2,0,0,1,2,2v6a2,2,0,0,1-2,2H14a2,2,0,0,1-2-2ZM12,2a2,2,0,0,1,2-2h6a2,2,0,0,1,2,2V8a2,2,0,0,1-2,2H14a2,2,0,0,1-2-2Z"/></g></g></svg>