<svg xmlns="http://www.w3.org/2000/svg" width="18" height="18" viewBox="0 0 18 18"><path d="M161,89h-5a4.012,4.012,0,0,0-4,4v4.1a6,6,0,0,1,5,5.9,3.4,3.4,0,0,1-.1,1H161a4.012,4.012,0,0,0,4-4V93A4.012,4.012,0,0,0,161,89Zm-7.5,4a2.476,2.476,0,0,1,2.5-2.5h5a2.476,2.476,0,0,1,2.5,2.5v5.4a3.465,3.465,0,0,1-2.4-1.2,4.2,4.2,0,0,0-3.9-1.4,3.981,3.981,0,0,0-2.1.9,7.973,7.973,0,0,0-1.6-.8Zm10,7a2.476,2.476,0,0,1-2.5,2.5h-2.5a7.182,7.182,0,0,0-2.2-4.8,3.582,3.582,0,0,1,1.1-.4,2.647,2.647,0,0,1,2.7,1,5.2,5.2,0,0,0,3.4,1.7Z" transform="translate(-147 -89)"/><path d="M151,99a4,4,0,1,0,4,4A4.012,4.012,0,0,0,151,99Zm2.9,4.7h-2.3v2.2h-1.4v-2.2h-2.3v-1.3h2.3v-2.3h1.4v2.3h2.2v1.3Z" transform="translate(-147 -89)"/></svg>