<svg xmlns="http://www.w3.org/2000/svg" viewBox="0 0 96.57 89.47"><g id="Layer_2" data-name="Layer 2"><g id="Layer_1-2" data-name="Layer 1"><path d="M10.62,46.46V86.68a2.78,2.78,0,0,0,2.79,2.79H35.9V59.94a2.78,2.78,0,0,1,2.78-2.8h19.2a2.78,2.78,0,0,1,2.79,2.8V89.47H83.16a2.78,2.78,0,0,0,2-.81,2.84,2.84,0,0,0,.82-2V46.41L47.88,16.81Z"/><path d="M94.39,34,51.69,1.16a5.57,5.57,0,0,0-6.81,0L22,18.75V9.87H10.83V27.34L2.18,34a5.58,5.58,0,0,0,3.4,10A5.4,5.4,0,0,0,7.4,43.7L46.56,12.54a2.09,2.09,0,0,1,2.57,0L89.25,43.71A5.57,5.57,0,0,0,94.39,34Z"/></g></g></svg>