<svg xmlns="http://www.w3.org/2000/svg" width="18" height="18" viewBox="0 0 18 18"><path d="M255,87H245a4.012,4.012,0,0,0-4,4v10a4.012,4.012,0,0,0,4,4h10a4.012,4.012,0,0,0,4-4V91A4.012,4.012,0,0,0,255,87Zm2.5,14a2.476,2.476,0,0,1-2.5,2.5H245a2.476,2.476,0,0,1-2.5-2.5V91a2.476,2.476,0,0,1,2.5-2.5h10a2.476,2.476,0,0,1,2.5,2.5Z" transform="translate(-241 -87)"/><path d="M247,91.8l-1.1-1a7.967,7.967,0,0,0-2.2,5.5,7.562,7.562,0,0,0,2.5,5.7l1-1.1a6.287,6.287,0,0,1-2-4.6A7.235,7.235,0,0,1,247,91.8Z" transform="translate(-241 -87)"/><path d="M248.9,93.6l-1.1-1a5.426,5.426,0,0,0-1.4,3.6,5.22,5.22,0,0,0,1.7,3.9l1-1.1a3.571,3.571,0,0,1-1.2-2.7A3.273,3.273,0,0,1,248.9,93.6Z" transform="translate(-241 -87)"/><path d="M252.9,91.8a6.66,6.66,0,0,1,1.8,4.4,6.345,6.345,0,0,1-2,4.7l1,1.1a7.941,7.941,0,0,0,2.5-5.8,8.152,8.152,0,0,0-2.2-5.5Z" transform="translate(-241 -87)"/><path d="M252.2,92.6l-1.1,1a3.75,3.75,0,0,1-.2,5.3l1,1.1a4.823,4.823,0,0,0,1.7-3.8A4.973,4.973,0,0,0,252.2,92.6Z" transform="translate(-241 -87)"/></svg>