<svg xmlns="http://www.w3.org/2000/svg" width="19.6" height="19.6" viewBox="0 0 19.6 19.6"><path d="M264,80.8a9.8,9.8,0,1,0-9.8-9.8A9.816,9.816,0,0,0,264,80.8Zm0-1.5a8.161,8.161,0,0,1-5.5-2.1,7.887,7.887,0,0,1,4.7-3h.6a3.334,3.334,0,0,1,1,0h.4a7.3,7.3,0,0,1,4.8,2.5A8.539,8.539,0,0,1,264,79.3Zm0-7.2a2.5,2.5,0,1,1,2.5-2.5A2.476,2.476,0,0,1,264,72.1Zm0-9.3a8.254,8.254,0,0,1,7,12.7,8.829,8.829,0,0,0-4.6-2.6,4.009,4.009,0,1,0-6.3-3.3A4.128,4.128,0,0,0,262,73a8.14,8.14,0,0,0-4.4,3.1,7.955,7.955,0,0,1-1.7-5A8.112,8.112,0,0,1,264,62.8Z" transform="translate(-254.2 -61.2)"/></svg>