<svg xmlns="http://www.w3.org/2000/svg" width="18.1" height="18" viewBox="0 0 18.1 18"><path d="M68.1,107h-1v1.4a7.868,7.868,0,0,1,7.6,7.6h1.4v-1a9.514,9.514,0,0,0-2.6-5.3A9.933,9.933,0,0,0,68.1,107Z" transform="translate(-58 -107)"/><path d="M59.4,116H58v1.1a9.844,9.844,0,0,0,2.6,5.3,8.91,8.91,0,0,0,5.3,2.6H67v-1.4a7.193,7.193,0,0,1-5.3-2.3A8.041,8.041,0,0,1,59.4,116Z" transform="translate(-58 -107)"/><path d="M67.1,110.5V112a3.756,3.756,0,0,1,3.8,3.8h1.5a5.464,5.464,0,0,0-1.6-3.8A5.388,5.388,0,0,0,67.1,110.5Z" transform="translate(-58 -107)"/><path d="M66.9,121.5V120a3.756,3.756,0,0,1-3.8-3.8H61.6a5.464,5.464,0,0,0,1.6,3.8A5.388,5.388,0,0,0,66.9,121.5Z" transform="translate(-58 -107)"/><circle cx="1.8" cy="1.8" r="1.8" transform="translate(7.2 7.2)"/></svg>